<?xml version="1.0" encoding="UTF-8"?>
<!DOCTYPE svg PUBLIC "-//W3C//DTD SVG 1.1//EN" "http://www.w3.org/Graphics/SVG/1.1/DTD/svg11.dtd">
<!-- Creator: CorelDRAW -->
<svg xmlns="http://www.w3.org/2000/svg" xml:space="preserve" width="6.82666in" height="6.82666in" style="shape-rendering:geometricPrecision; text-rendering:geometricPrecision; image-rendering:optimizeQuality; fill-rule:evenodd; clip-rule:evenodd"
viewBox="0 0 6.82666 6.82666"
 xmlns:xlink="http://www.w3.org/1999/xlink">
 <defs>
  <style type="text/css">
   <![CDATA[
    .fil0 {fill:none}
    .fil1 {fill:#A2A2A2;fill-rule:nonzero}
    .fil2 {fill:#BBBBBC;fill-rule:nonzero}
   ]]>
  </style>
 </defs>
 <g id="Layer_x0020_1">
  <metadata id="CorelCorpID_0Corel-Layer"/>
  <g id="_487984200">
   <rect id="_487984392" class="fil0" width="6.82666" height="6.82666"/>
   <rect id="_487984248" class="fil0" x="0.853331" y="0.853331" width="5.12" height="5.12"/>
  </g>
  <line class="fil0" x1="2.56" y1="1.49333" x2="3.09856" y2= "1.80426" />
  <g id="_487983864">
   <path id="_487984056" class="fil1" d="M3.59102 3.17311c0.0358189,-0.0445512 0.0287402,-0.109717 -0.015815,-0.145535 -0.0445512,-0.0358189 -0.109717,-0.0287402 -0.145535,0.015811l-2.23346 2.76156c-0.0358189,0.0445512 -0.0287402,0.109717 0.015815,0.145535 0.0445512,0.0358189 0.109717,0.0287402 0.145535,-0.015811l2.23346 -2.76156z"/>
   <g>
    <path id="_487984656" class="fil2" d="M2.54832 1.90476c-0.0255669,-0.00583071 -0.0510276,0.0101654 -0.0568583,0.0357362 -0.00583071,0.0255669 0.0101654,0.0510276 0.0357362,0.0568583l0.578047 0.133122c0.0255669,0.00583071 0.0510276,-0.0101654 0.0568583,-0.0357362 0.00583071,-0.0255669 -0.0101654,-0.0510236 -0.0357362,-0.0568583l-0.578047 -0.133122z"/>
    <g>
     <path id="_487983264" class="fil2" d="M4.09856 1.48974c-0.00165354,0.0261732 0.0182205,0.0487362 0.0443937,0.0503898 0.0261732,0.00165748 0.0487362,-0.0182205 0.0503898,-0.0443898l0.038689 -0.591917c0.00165748,-0.0261732 -0.0182165,-0.0487362 -0.0443898,-0.0503898 -0.0261732,-0.00165748 -0.0487362,0.0182165 -0.0503937,0.0443898l-0.038689 0.591917z"/>
     <g>
      <path id="_487983672" class="fil2" d="M5.01067 2.19241c-0.0261181,0.0023937 -0.0453504,0.0255079 -0.0429528,0.051622 0.00239764,0.0261181 0.0255118,0.0453504 0.051626,0.0429528l0.590811 -0.0529646c0.0261142,-0.00239764 0.0453465,-0.0255118 0.0429488,-0.051626 -0.0023937,-0.0261142 -0.0255118,-0.0453465 -0.051626,-0.0429488l-0.590807 0.0529646z"/>
      <g>
       <polygon id="_487983648" class="fil2" points="5.01161,1.4003 4.8088,2.26716 5.40362,2.86585 5.56022,3.02348 5.33876,3.0422 4.45174,3.11718 4.06633,3.86758 3.965,4.06487 3.87904,3.86069 3.53367,3.04034 2.70052,2.90562 2.48129,2.87018 2.64903,2.72522 3.32263,2.14313 3.19326,1.30894 3.15926,1.08961 3.34894,1.20434 4.11073,1.66512 4.86404,1.28435 5.06216,1.18421 "/>
       <path id="_487983456" class="fil2" d="M4.60334 3.89829c0.00488583,0.0257677 0.0297323,0.0426969 0.0555,0.037815 0.0257638,-0.00488583 0.0426969,-0.0297362 0.037811,-0.0555l-0.10926 -0.583031c-0.00488189,-0.0257638 -0.0297323,-0.0426969 -0.0555,-0.037811 -0.0257638,0.00488189 -0.0426969,0.0297323 -0.037811,0.0554961l0.10926 0.583031z"/>
      </g>
     </g>
    </g>
   </g>
  </g>
 </g>
</svg>
